<svg xmlns="http://www.w3.org/2000/svg" xmlns:xlink="http://www.w3.org/1999/xlink" width="500" zoomAndPan="magnify" viewBox="0 0 375 374.999991" height="500" preserveAspectRatio="xMidYMid meet" version="1.0"><defs><g/><clipPath id="0cae89d4e1"><path d="M 71.238281 115.003906 L 147.738281 115.003906 L 147.738281 259.753906 L 71.238281 259.753906 Z M 71.238281 115.003906 " clip-rule="nonzero"/></clipPath></defs><rect x="-37.5" width="450" fill="#ffffff" y="-37.499999" height="449.999989" fill-opacity="1"/><rect x="-37.5" width="450" fill="#ffffff" y="-37.499999" height="449.999989" fill-opacity="1"/><path fill="#eb690a" d="M 104.699219 203.199219 L 107.863281 200.03125 L 115.246094 207.410156 C 115.769531 207.933594 116.605469 207.933594 117.128906 207.410156 L 120.503906 204.035156 C 121.027344 203.511719 121.027344 202.675781 120.503906 202.152344 L 113.125 194.769531 L 116.265625 191.628906 C 117.179688 190.714844 116.761719 189.144531 115.480469 188.828125 L 100.011719 184.929688 C 98.78125 184.617188 97.65625 185.742188 97.972656 186.972656 L 101.898438 202.414062 C 102.210938 203.667969 103.78125 204.113281 104.699219 203.199219 Z M 104.699219 203.199219 " fill-opacity="1" fill-rule="nonzero"/><g clip-path="url(#0cae89d4e1)"><path fill="#16023f" d="M 136.941406 148.054688 L 131.652344 148.054688 L 131.652344 137.378906 C 131.652344 125.132812 121.683594 115.132812 109.410156 115.132812 C 97.132812 115.132812 87.164062 125.105469 87.164062 137.378906 L 87.164062 148.054688 L 81.878906 148.054688 C 76.144531 148.054688 71.488281 152.714844 71.488281 158.445312 L 71.488281 249.625 C 71.488281 255.355469 76.144531 260.039062 81.878906 260.039062 L 136.941406 260.039062 C 142.671875 260.039062 147.328125 255.382812 147.328125 249.625 L 147.328125 158.445312 C 147.328125 152.714844 142.671875 148.054688 136.941406 148.054688 Z M 93.730469 137.378906 C 93.730469 128.714844 100.773438 121.675781 109.433594 121.675781 C 118.097656 121.675781 125.136719 128.714844 125.136719 137.378906 L 125.136719 148.054688 L 93.730469 148.054688 Z M 81.902344 154.597656 L 87.191406 154.597656 L 87.191406 160.671875 C 86.246094 161.535156 85.671875 162.789062 85.671875 164.175781 C 85.671875 166.820312 87.816406 168.964844 90.460938 168.964844 C 93.105469 168.964844 95.25 166.820312 95.25 164.175781 C 95.25 162.789062 94.648438 161.558594 93.730469 160.671875 L 93.730469 154.597656 L 125.109375 154.597656 L 125.109375 160.671875 C 124.167969 161.535156 123.59375 162.789062 123.59375 164.152344 C 123.59375 166.792969 125.738281 168.941406 128.382812 168.941406 C 131.023438 168.941406 133.171875 166.792969 133.171875 164.152344 C 133.171875 162.765625 132.570312 161.535156 131.652344 160.644531 L 131.652344 154.574219 L 136.941406 154.574219 C 139.058594 154.574219 140.785156 156.300781 140.785156 158.417969 L 140.785156 229.421875 L 78.03125 229.421875 L 78.03125 158.445312 C 78.03125 156.328125 79.757812 154.597656 81.902344 154.597656 Z M 136.941406 253.496094 L 81.902344 253.496094 C 79.785156 253.496094 78.054688 251.769531 78.054688 249.625 L 78.054688 235.964844 L 140.8125 235.964844 L 140.8125 249.625 C 140.785156 251.769531 139.058594 253.496094 136.941406 253.496094 Z M 136.941406 253.496094 " fill-opacity="1" fill-rule="nonzero"/></g><path fill="#16023f" d="M 113.621094 244.992188 C 113.621094 245.269531 113.59375 245.542969 113.539062 245.8125 C 113.488281 246.085938 113.40625 246.347656 113.300781 246.605469 C 113.195312 246.859375 113.066406 247.101562 112.910156 247.332031 C 112.757812 247.5625 112.582031 247.777344 112.386719 247.972656 C 112.191406 248.167969 111.980469 248.339844 111.75 248.496094 C 111.519531 248.648438 111.277344 248.777344 111.019531 248.882812 C 110.765625 248.992188 110.5 249.070312 110.230469 249.125 C 109.957031 249.179688 109.683594 249.207031 109.410156 249.207031 C 109.132812 249.207031 108.859375 249.179688 108.585938 249.125 C 108.316406 249.070312 108.050781 248.992188 107.796875 248.882812 C 107.539062 248.777344 107.296875 248.648438 107.066406 248.496094 C 106.835938 248.339844 106.625 248.167969 106.429688 247.972656 C 106.234375 247.777344 106.058594 247.5625 105.90625 247.332031 C 105.75 247.101562 105.621094 246.859375 105.515625 246.605469 C 105.410156 246.347656 105.328125 246.085938 105.277344 245.8125 C 105.222656 245.542969 105.195312 245.269531 105.195312 244.992188 C 105.195312 244.714844 105.222656 244.441406 105.277344 244.167969 C 105.328125 243.898438 105.410156 243.636719 105.515625 243.378906 C 105.621094 243.125 105.75 242.882812 105.90625 242.652344 C 106.058594 242.421875 106.234375 242.207031 106.429688 242.011719 C 106.625 241.816406 106.835938 241.640625 107.066406 241.488281 C 107.296875 241.335938 107.539062 241.203125 107.796875 241.097656 C 108.050781 240.992188 108.316406 240.914062 108.585938 240.859375 C 108.859375 240.804688 109.132812 240.777344 109.410156 240.777344 C 109.683594 240.777344 109.957031 240.804688 110.230469 240.859375 C 110.5 240.914062 110.765625 240.992188 111.019531 241.097656 C 111.277344 241.203125 111.519531 241.335938 111.75 241.488281 C 111.980469 241.640625 112.191406 241.816406 112.386719 242.011719 C 112.582031 242.207031 112.757812 242.421875 112.910156 242.652344 C 113.066406 242.882812 113.195312 243.125 113.300781 243.378906 C 113.40625 243.636719 113.488281 243.898438 113.539062 244.167969 C 113.59375 244.441406 113.621094 244.714844 113.621094 244.992188 Z M 113.621094 244.992188 " fill-opacity="1" fill-rule="nonzero"/><g fill="#16023f" fill-opacity="1"><g transform="translate(158.231346, 193.872548)"><g><path d="M 12.015625 0 L 12.015625 -26.28125 L 1.4375 -26.28125 L 1.4375 -33.390625 L 30.203125 -33.390625 L 30.203125 -26.28125 L 19.609375 -26.28125 L 19.609375 0 Z M 12.015625 0 "/></g></g></g><g fill="#16023f" fill-opacity="1"><g transform="translate(189.854667, 193.872548)"><g><path d="M 15.453125 0.671875 C 12.785156 0.671875 10.425781 0.113281 8.375 -1 C 6.320312 -2.113281 4.722656 -3.664062 3.578125 -5.65625 C 2.429688 -7.644531 1.859375 -9.941406 1.859375 -12.546875 C 1.859375 -15.148438 2.4375 -17.4375 3.59375 -19.40625 C 4.757812 -21.382812 6.367188 -22.929688 8.421875 -24.046875 C 10.472656 -25.160156 12.847656 -25.71875 15.546875 -25.71875 C 18.410156 -25.71875 20.882812 -25.078125 22.96875 -23.796875 C 25.050781 -22.523438 26.640625 -20.742188 27.734375 -18.453125 C 28.835938 -16.171875 29.304688 -13.503906 29.140625 -10.453125 L 9.0625 -10.453125 C 9.414062 -8.734375 10.179688 -7.421875 11.359375 -6.515625 C 12.535156 -5.609375 13.945312 -5.15625 15.59375 -5.15625 C 16.800781 -5.15625 17.90625 -5.382812 18.90625 -5.84375 C 19.914062 -6.300781 20.722656 -6.945312 21.328125 -7.78125 L 28.671875 -7.78125 C 27.585938 -5.132812 25.882812 -3.0625 23.5625 -1.5625 C 21.238281 -0.0703125 18.535156 0.671875 15.453125 0.671875 Z M 9.109375 -15.03125 L 22.140625 -15.03125 C 21.722656 -16.550781 20.945312 -17.75 19.8125 -18.625 C 18.6875 -19.5 17.28125 -19.9375 15.59375 -19.9375 C 14.007812 -19.9375 12.632812 -19.5 11.46875 -18.625 C 10.3125 -17.75 9.523438 -16.550781 9.109375 -15.03125 Z M 9.109375 -15.03125 "/></g></g></g><g fill="#16023f" fill-opacity="1"><g transform="translate(220.810216, 193.872548)"><g><path d="M 15.546875 0.671875 C 12.878906 0.671875 10.507812 0.109375 8.4375 -1.015625 C 6.375 -2.148438 4.757812 -3.710938 3.59375 -5.703125 C 2.4375 -7.691406 1.859375 -9.972656 1.859375 -12.546875 C 1.859375 -15.117188 2.4375 -17.390625 3.59375 -19.359375 C 4.757812 -21.335938 6.375 -22.890625 8.4375 -24.015625 C 10.507812 -25.148438 12.878906 -25.71875 15.546875 -25.71875 C 17.867188 -25.71875 19.972656 -25.296875 21.859375 -24.453125 C 23.753906 -23.609375 25.320312 -22.414062 26.5625 -20.875 C 27.8125 -19.332031 28.625 -17.523438 29 -15.453125 L 22.03125 -15.453125 C 21.425781 -16.722656 20.566406 -17.71875 19.453125 -18.4375 C 18.347656 -19.15625 17.078125 -19.515625 15.640625 -19.515625 C 13.703125 -19.515625 12.113281 -18.867188 10.875 -17.578125 C 9.632812 -16.285156 9.015625 -14.609375 9.015625 -12.546875 C 9.015625 -10.515625 9.632812 -8.84375 10.875 -7.53125 C 12.113281 -6.226562 13.703125 -5.578125 15.640625 -5.578125 C 17.171875 -5.578125 18.515625 -5.984375 19.671875 -6.796875 C 20.835938 -7.609375 21.675781 -8.695312 22.1875 -10.0625 L 29.234375 -10.0625 C 28.796875 -7.875 27.945312 -5.972656 26.6875 -4.359375 C 25.4375 -2.753906 23.851562 -1.515625 21.9375 -0.640625 C 20.03125 0.234375 17.898438 0.671875 15.546875 0.671875 Z M 15.546875 0.671875 "/></g></g></g><g fill="#16023f" fill-opacity="1"><g transform="translate(251.813465, 193.872548)"><g><path d="M 3.625 0 L 3.625 -35.296875 L 10.875 -35.296875 L 10.875 -23.140625 C 11.832031 -23.992188 12.945312 -24.632812 14.21875 -25.0625 C 15.488281 -25.5 16.820312 -25.71875 18.21875 -25.71875 C 21.46875 -25.71875 24.015625 -24.710938 25.859375 -22.703125 C 27.703125 -20.703125 28.625 -17.953125 28.625 -14.453125 L 28.625 0 L 21.375 0 L 21.375 -13.734375 C 21.375 -15.578125 20.9375 -17 20.0625 -18 C 19.1875 -19.007812 17.96875 -19.515625 16.40625 -19.515625 C 14.75 -19.515625 13.410156 -18.945312 12.390625 -17.8125 C 11.378906 -16.6875 10.875 -15.140625 10.875 -13.171875 L 10.875 0 Z M 3.625 0 "/></g></g></g><g fill="#16023f" fill-opacity="1"><g transform="translate(158.231346, 247.600617)"><g><path d="M 24.65625 0 L 24.65625 -13.453125 L 11.59375 -13.453125 L 11.59375 0 L 4 0 L 4 -33.390625 L 11.59375 -33.390625 L 11.59375 -20.5625 L 24.65625 -20.5625 L 24.65625 -33.390625 L 32.25 -33.390625 L 32.25 0 Z M 24.65625 0 "/></g></g></g><g fill="#16023f" fill-opacity="1"><g transform="translate(194.48131, 247.600617)"><g><path d="M 11.96875 0.484375 C 9.007812 0.484375 6.671875 -0.207031 4.953125 -1.59375 C 3.242188 -2.976562 2.390625 -4.878906 2.390625 -7.296875 C 2.390625 -9.617188 3.160156 -11.472656 4.703125 -12.859375 C 6.242188 -14.242188 8.316406 -14.9375 10.921875 -14.9375 L 19.984375 -14.9375 L 19.984375 -16.078125 C 19.984375 -17.316406 19.535156 -18.304688 18.640625 -19.046875 C 17.753906 -19.796875 16.597656 -20.171875 15.171875 -20.171875 C 13.992188 -20.171875 12.988281 -19.898438 12.15625 -19.359375 C 11.332031 -18.828125 10.8125 -18.113281 10.59375 -17.21875 L 3.625 -17.21875 C 4.070312 -19.957031 5.300781 -22.054688 7.3125 -23.515625 C 9.332031 -24.984375 11.9375 -25.71875 15.125 -25.71875 C 18.875 -25.71875 21.804688 -24.769531 23.921875 -22.875 C 26.035156 -20.976562 27.09375 -18.378906 27.09375 -15.078125 L 27.09375 0 L 21.703125 0 L 20.890625 -2.90625 C 18.703125 -0.644531 15.726562 0.484375 11.96875 0.484375 Z M 9.546875 -7.578125 C 9.546875 -6.722656 9.914062 -6.03125 10.65625 -5.5 C 11.40625 -4.976562 12.398438 -4.71875 13.640625 -4.71875 C 15.453125 -4.71875 16.953125 -5.242188 18.140625 -6.296875 C 19.335938 -7.347656 19.96875 -8.71875 20.03125 -10.40625 L 13.171875 -10.40625 C 12.085938 -10.40625 11.210938 -10.148438 10.546875 -9.640625 C 9.878906 -9.128906 9.546875 -8.441406 9.546875 -7.578125 Z M 9.546875 -7.578125 "/></g></g></g><g fill="#16023f" fill-opacity="1"><g transform="translate(224.721401, 247.600617)"><g><path d="M 10.828125 0 L 0.421875 -25.046875 L 8.34375 -25.046875 L 11.15625 -17.171875 L 14.5 -8.6875 L 17.796875 -17.171875 L 20.65625 -25.046875 L 28.53125 -25.046875 L 18.078125 0 Z M 10.828125 0 "/></g></g></g><g fill="#16023f" fill-opacity="1"><g transform="translate(253.673665, 247.600617)"><g><path d="M 15.453125 0.671875 C 12.785156 0.671875 10.425781 0.113281 8.375 -1 C 6.320312 -2.113281 4.722656 -3.664062 3.578125 -5.65625 C 2.429688 -7.644531 1.859375 -9.941406 1.859375 -12.546875 C 1.859375 -15.148438 2.4375 -17.4375 3.59375 -19.40625 C 4.757812 -21.382812 6.367188 -22.929688 8.421875 -24.046875 C 10.472656 -25.160156 12.847656 -25.71875 15.546875 -25.71875 C 18.410156 -25.71875 20.882812 -25.078125 22.96875 -23.796875 C 25.050781 -22.523438 26.640625 -20.742188 27.734375 -18.453125 C 28.835938 -16.171875 29.304688 -13.503906 29.140625 -10.453125 L 9.0625 -10.453125 C 9.414062 -8.734375 10.179688 -7.421875 11.359375 -6.515625 C 12.535156 -5.609375 13.945312 -5.15625 15.59375 -5.15625 C 16.800781 -5.15625 17.90625 -5.382812 18.90625 -5.84375 C 19.914062 -6.300781 20.722656 -6.945312 21.328125 -7.78125 L 28.671875 -7.78125 C 27.585938 -5.132812 25.882812 -3.0625 23.5625 -1.5625 C 21.238281 -0.0703125 18.535156 0.671875 15.453125 0.671875 Z M 9.109375 -15.03125 L 22.140625 -15.03125 C 21.722656 -16.550781 20.945312 -17.75 19.8125 -18.625 C 18.6875 -19.5 17.28125 -19.9375 15.59375 -19.9375 C 14.007812 -19.9375 12.632812 -19.5 11.46875 -18.625 C 10.3125 -17.75 9.523438 -16.550781 9.109375 -15.03125 Z M 9.109375 -15.03125 "/></g></g></g><g fill="#16023f" fill-opacity="1"><g transform="translate(284.629214, 247.600617)"><g><path d="M 3.625 0 L 3.625 -25.046875 L 9.015625 -25.046875 L 9.78125 -22.234375 C 10.800781 -23.410156 12.03125 -24.285156 13.46875 -24.859375 C 14.914062 -25.429688 16.46875 -25.71875 18.125 -25.71875 C 21.40625 -25.71875 23.972656 -24.695312 25.828125 -22.65625 C 27.691406 -20.625 28.625 -17.875 28.625 -14.40625 L 28.625 0 L 21.375 0 L 21.375 -13.640625 C 21.375 -15.484375 20.9375 -16.921875 20.0625 -17.953125 C 19.1875 -18.992188 17.96875 -19.515625 16.40625 -19.515625 C 14.75 -19.515625 13.410156 -18.941406 12.390625 -17.796875 C 11.378906 -16.648438 10.875 -15.09375 10.875 -13.125 L 10.875 0 Z M 3.625 0 "/></g></g></g></svg>